<svg width="640" height="480" xmlns="http://www.w3.org/2000/svg">
 <!-- Created with Method Draw - http://github.com/duopixel/Method-Draw/ -->
 <g>
  <title>background</title>
  <rect fill="#ccc5c5" id="canvas_background" height="482" width="642" y="-1" x="-1"/>
  <g display="none" overflow="visible" y="0" x="0" height="100%" width="100%" id="canvasGrid">
   <rect fill="url(#gridpattern)" stroke-width="0" y="0" x="0" height="100%" width="100%"/>
  </g>
 </g>
 <g>
  <title>Layer 1</title>
  <path stroke="#000" id="svg_4" d="m139.94024,104.67702c-1.81298,0 -2.74485,-1.68725 -2.74485,-3.71057c0,-1.68685 0.46587,-3.3246 1.81298,-3.3246c0.93187,0 2.33468,1.63775 2.80054,3.3246c0.93187,2.45604 0,3.71057 -1.86867,3.71057zm309.90952,96.27233c4.1478,0 5.07953,0.43272 2.74485,3.32421c-1.34711,2.02331 -4.14765,3.71017 -5.49477,3.71017c-1.40267,0 -2.80054,-1.68686 -2.80054,-3.71017c0,-2.07295 1.86881,-3.32421 5.55046,-3.32421zm-289.58141,-117.76275c-4.14765,-0.81868 -4.61366,-4.96431 0,-6.21597c2.33454,-0.38543 3.68179,0.81855 3.68179,3.32461c0,2.07268 -1.34725,3.27719 -3.68179,2.89136zm-51.70145,130.96386c5.55046,-1.20464 5.55046,-2.07047 3.68179,-4.91481c-1.39787,-2.07047 -1.86374,-4.57626 -0.93187,-5.39507c0.46586,-1.25388 2.80054,0 4.14766,2.45629c1.86867,3.32461 3.2664,3.75994 6.94819,1.68686c2.28406,-1.25153 4.14766,-2.07242 4.14766,-0.81855c0,0.81855 1.40281,0 3.21579,-1.68685c2.80068,-2.4563 3.26654,-7.85359 0.466,-10.74521c-2.27898,-2.4563 -13.84577,-1.63749 -17.06156,1.25153c-1.86374,2.07307 -3.26655,1.64009 -5.07953,-2.07008c-2.80054,-6.16908 -2.80054,-7.03517 3.68165,-7.4206c5.55047,0 5.55047,0 0.93187,-2.5058c-2.3296,-1.20464 -4.61352,-3.71017 -4.61352,-5.34792c0,-4.14537 6.43158,-6.60166 9.23212,-3.71004c0.93187,1.20438 2.74499,2.4563 4.61366,2.4563c3.68179,0 21.25984,-14.02045 21.25984,-16.91207c0,-1.25375 1.81805,-2.07229 3.68179,-1.25375c2.28392,0.4352 6.43171,-0.81854 10.63506,-2.89162c5.96064,-3.32434 5.96064,-3.71017 2.74485,-9.10524c-2.27898,-3.71017 -5.07952,-4.96431 -11.56186,-4.96431c-7.36344,0 -9.23211,0.81894 -11.5111,5.78325c-0.93694,3.32421 -3.73734,5.78063 -5.55046,5.78063c-3.21579,0 -4.14766,-3.70795 -0.93187,-5.78063c1.39773,-0.81894 2.3296,-3.71018 2.3296,-6.6018c0,-4.52924 -0.93187,-5.34792 -6.94819,-4.14315c-6.01633,0.81855 -6.01633,0.43272 -4.61367,-5.78351c0.93187,-3.71004 2.27899,-7.03439 3.21593,-7.42021c0.93187,-0.43272 1.8636,-4.14316 1.8636,-7.85333c0,-7.42099 2.74992,-8.67252 7.83452,-3.3246c2.32946,2.89149 3.73241,3.3246 4.61352,0.81855c0.93187,-1.63749 4.19828,-2.02332 9.28288,-1.20477c6.89758,1.63775 7.36344,1.20477 6.43157,-3.71017c-0.46586,-2.89124 -0.9368,-6.21584 -1.40267,-7.03439c0,-1.25192 -2.27898,-2.89162 -5.0289,-4.14354c-5.55047,-2.07229 -6.9482,-7.03438 -1.86867,-7.03438c1.4028,0 2.74978,-0.81894 2.74978,-2.45891c0,-1.25192 2.80068,-2.07047 6.48233,-1.68712c5.0846,0.4352 7.82945,-1.20411 14.77765,-9.87624c5.0846,-6.21623 8.76625,-9.54058 9.23225,-7.85372c0.46587,2.07047 2.80054,3.27484 5.08446,3.27484c3.68179,0 4.1478,-1.20437 2.80069,-6.59944c-0.47094,-3.71043 -2.80069,-8.23915 -4.20336,-10.31223c-4.14779,-4.57809 -4.14779,-9.92601 0,-8.28892c3.26641,1.6401 13.43039,-2.88901 13.43039,-5.7805c0,-1.25388 1.35219,-2.07269 3.21579,-2.07269c1.86882,0 2.74992,2.50567 2.74992,5.78312c0,4.14315 0.93187,5.7809 3.26655,4.57613c1.81298,-0.86596 3.21593,-3.3246 3.21593,-4.96196c0,-4.96457 14.7775,-13.63683 18.45915,-11.17832c1.40295,0.8192 2.80055,0 3.27177,-2.89123c1.34697,-5.78312 9.6929,-10.31223 13.37455,-7.4206c1.86882,1.20437 3.68193,0.81894 4.15287,-0.43272c0.93173,-1.63997 4.61352,-2.89163 8.76118,-3.27772c4.14766,-0.43271 9.69812,-2.07268 12.0328,-3.75954c8.76117,-5.34792 17.52757,-4.96209 21.20922,0.82142c2.33468,4.14289 3.2664,4.14289 3.2664,1.25127c0,-3.71044 1.8182,-4.14315 12.91405,-2.89124c17.57819,1.63997 20.32811,1.63997 26.81044,-0.43311c4.14766,-1.20463 5.55033,-0.8188 5.55033,2.50541c0,2.07308 1.34725,3.71056 3.21593,3.71056c1.39773,0 2.74484,-1.20477 2.74484,-2.45864c0,-3.32422 7.41928,-4.96196 13.90147,-3.32422c5.02891,1.63997 5.49477,2.0723 4.14766,13.20333c-0.46586,6.64895 0,11.17806 0.88125,11.17806c0.93173,0 1.86867,-2.89162 1.86867,-7.03477c0,-6.98763 5.07953,-9.8769 6.9482,-4.14329c0.46601,2.0706 1.81298,1.25166 2.74485,-2.02318c2.33482,-8.67474 7.41928,-4.14576 6.01633,5.34792c-1.3976,7.85332 -1.3976,7.85332 2.75006,4.9617c2.33454,-1.25166 4.14751,-4.52872 4.14751,-6.59945c0,-2.07281 1.40295,-4.53133 3.26669,-5.39742c3.68151,-1.63709 7.83439,4.57652 6.4822,9.10746c-0.46587,2.07086 -0.46587,3.71044 0.8811,3.71044c0.93695,0 1.86882,-1.20438 1.86882,-2.07269c0,-1.20464 2.28392,-1.63775 5.08446,-0.81855c6.01139,1.25166 6.8925,4.57587 1.81312,6.59919c-1.34712,0.86831 -2.74993,2.89162 -2.74993,4.57874c0,2.89162 0.93681,2.89162 6.01633,0c8.29531,-4.96196 11.97696,-4.57874 13.37991,0.81855c0.93173,2.89162 2.74979,4.1455 4.61352,2.89162c1.86868,-0.43298 6.01633,1.25388 9.23226,4.14315c2.80054,2.45852 6.9482,4.52911 8.81687,4.52911c2.74992,0 2.74992,2.07295 1.81298,7.85581c-0.93173,6.21623 -0.93173,7.03477 1.86881,4.52937c3.68165,-4.09639 5.07953,-3.71083 6.43172,2.07007c0.46586,2.89163 3.73227,4.96431 7.41406,6.21597c4.14766,0.82142 6.43171,2.89149 6.43171,5.35014c0,2.50566 1.3976,5.39507 2.80055,7.03504c3.68179,2.89123 2.74484,11.56349 -1.40295,14.45498c-1.3976,0.86609 -3.21565,0.43311 -3.68165,-0.81854c-0.93173,-1.25414 -4.14766,-1.25414 -10.16413,0c-9.69812,2.88901 -11.5111,3.71017 -9.23212,7.46749c1.40281,2.4563 17.53251,1.63775 26.34444,-1.25388c2.74993,-1.25178 3.68179,0 3.68179,5.78325c0,4.14289 -0.93186,7.42061 -2.3296,7.42061c-0.93694,0 -1.81805,1.25152 -1.81805,3.32421c0,4.96405 2.28406,4.52872 8.30039,-1.25192c3.21071,-3.32421 5.07938,-4.14537 7.36344,-2.07229c2.3296,2.07229 2.80054,2.07229 2.80054,-1.25192c0,-2.0258 -0.93694,-3.71017 -2.33454,-3.71017c-0.88125,0 -1.81819,-1.63997 -1.81819,-3.27772c0,-2.07242 1.35219,-3.71017 3.21579,-3.71017c1.4028,0 3.26654,0.81855 3.26654,2.02332c0,1.2544 1.81806,2.89149 4.15273,3.3246c3.21086,1.25414 4.14766,2.89162 3.68166,7.85358c-0.93681,9.49303 0.93201,12.38492 7.82944,10.74743c3.26655,-0.82142 5.07939,0 3.68179,1.63749c-0.41524,0.81855 0,2.89162 0.93187,3.75706c3.73735,2.45878 2.33454,8.2398 -1.81312,8.2398c-5.08446,0 -6.48233,2.0723 -3.73227,5.78286c1.8636,2.07269 3.26641,2.4563 5.07939,0.81881c4.20335,-4.14315 5.0846,-0.81881 5.55046,15.70952c0,8.28604 0.93187,14.8881 1.86374,14.8881c2.28392,0 1.40281,9.10746 -1.86374,12.81763c-1.81805,2.07047 -1.81805,4.09365 -0.46586,5.78051c3.26641,3.71056 0,14.45577 -4.15287,14.45577c-3.68151,0 -10.62985,7.85332 -10.62985,11.56375c0,4.5316 -5.96064,0 -7.36344,-4.96209c-1.39774,-4.52898 -1.39774,-4.52898 -2.33468,-1.25387c-0.88111,3.75967 4.15273,15.32343 8.35115,18.60049c2.74978,2.50605 -2.33468,6.64894 -6.01647,4.96209c-1.86882,-0.81855 -2.74993,-3.27484 -2.74993,-5.78064c0,-7.03438 -11.56186,-24.76748 -20.32811,-31.41616c-4.66414,-3.27772 -8.81193,-6.98789 -8.81193,-8.23942c0,-2.50579 -14.78258,-10.31223 -23.07789,-12.81789c-4.61874,-1.25388 -6.01647,-0.81868 -6.01647,2.50566c0,2.4563 -0.88111,3.27485 -2.74993,2.4563c-4.14765,-1.63775 -6.01633,2.07308 -2.33453,5.78325c5.08446,4.52898 4.20335,9.92601 -1.34712,7.85332c-3.73241,-1.25166 -4.19841,-0.81894 -2.80054,6.2161c0.46586,4.096 1.40281,9.49303 1.40281,11.94932c0,2.5058 0.93173,4.14354 1.8636,4.14354c1.35233,0 1.81805,-0.81893 0.88125,-2.07046c-0.46587,-1.25414 0.47108,-2.45865 2.33453,-2.45865c1.40295,0 2.74993,1.63971 2.74993,3.2772c0,1.68711 -1.81792,3.32421 -5.08446,2.89188c-2.74485,0 -5.07953,-1.20477 -5.07953,-2.02357c0,-3.75994 -12.44804,-29.34596 -16.12969,-33.10329c-4.1478,-4.09639 -1.39788,-5.34792 -34.17403,14.06942c-5.07938,2.89163 -10.62985,9.10747 -13.43039,13.63684c-2.28406,4.52872 -5.96571,9.10746 -7.82945,9.92601c-1.86867,0.81893 -8.76625,7.4206 -14.78272,14.45538c-25.87857,30.98083 -21.67522,34.69126 -19.8621,97.95944c7.83438,47.94201 7.83438,47.94201 7.83438,47.94201c-18.46437,0 -18.46437,0 -18.46437,0c-15.24351,0 -15.24351,0 -15.24351,0c1.39773,-44.23432 1.39773,-44.23432 1.39773,-44.23432c0.93173,-3.70769 1.40281,-11.17766 1.86881,-15.3212c0.46587,-2.45852 -12.96466,-13.20373 -12.49866,-15.65976c0,-2.07269 13.8964,3.71056 13.8964,1.63749c2.28392,-30.16229 0,-54.15824 -6.01647,-66.92886c-1.39773,-7.85371 -12.96453,-33.1008 -14.77751,-33.1008c-0.466,0 -3.73241,-2.45851 -6.94819,-5.35014c-5.55061,-5.3948 -7.82945,-5.78089 -38.79263,-7.4206c-33.24201,-1.68464 -33.24201,-1.68464 -33.24201,-1.68464c-7.88007,5.7809 -7.88007,5.7809 -7.88007,5.7809c-4.61352,3.75954 -9.23212,6.21597 -10.57937,6.21597c-2.80054,0 -14.36734,8.67435 -19.39624,13.63605c-0.46587,0 -0.93173,-0.43233 -0.93173,-0.81855c-0.466,0 -0.466,0 -0.466,-0.43298c-0.46587,-1.20437 -0.93681,-2.45851 -1.86868,-3.71017c2.80054,-2.07269 5.08446,-3.32656 6.01633,-2.89123c1.39773,0.81854 2.74992,0 2.74992,-2.07308c0,-2.07047 -2.74992,-2.89149 -10.11336,-2.07047c-8.81701,1.25192 -11.10093,1.68464 -12.49866,6.59958c-2.28406,2.50567 -2.74993,6.2161 -1.39774,9.10772c-0.47108,3.71017 -0.47108,6.21584 0,6.21584c0.46587,0 0.93173,-0.81855 2.32961,-1.68686c0,0.43311 0.46586,0.86831 0.9368,1.25388c-4.6186,1.25166 -6.95327,4.96209 -6.48233,8.67226c-2.33454,1.68686 -4.6186,2.50567 -7.419,3.75732c0,0 0,-0.43271 -0.41539,-0.43271c1.81806,-3.71018 2.74993,-7.85372 3.21579,-14.06956c0.93694,-6.98788 0.46586,-11.56375 -0.93173,-11.56375c-0.93187,0 -1.86867,1.68686 -1.86867,4.14276c0.46572,2.07308 -0.41539,4.14354 -2.27912,4.52937c-1.40281,0.43272 -2.33454,-0.38583 -2.33454,-2.45629c0,-4.96431 -1.81312,-4.96431 -5.96585,-0.4352c-1.8636,1.68685 -5.54539,3.71043 -8.76118,4.57874c-4.20335,1.20437 -5.55046,0.38544 -7.41914,-4.14354c-1.39773,-3.71018 -2.3296,-7.85581 -1.39773,-9.49329c0.46587,-2.07269 0.46587,-3.75733 -1.34711,-3.75733c-5.0846,0 -1.40281,-6.60205 4.61352,-7.85593zm39.72435,-95.01845c-2.80054,-0.43272 -5.0846,-1.63749 -6.01633,-3.32435c-0.46601,-2.45851 -0.93187,-2.45851 -0.93187,0c0,1.68686 -1.86867,2.89163 -3.68179,3.32435c-3.26641,0 -3.26641,0.43298 0.466,2.07307c2.27885,0.81855 4.61352,2.07008 5.07939,2.07008c0.41524,0 2.74992,-1.25153 5.0846,-2.07008c4.14765,-2.07307 4.14765,-2.07307 0,-2.07307zm366.22449,66.54302c0.88125,0.81894 1.81312,-0.4352 1.81312,-2.50567c0,-1.6397 -0.93187,-3.27745 -1.81312,-3.27745c-1.40266,0 -2.33453,0.81881 -2.33453,2.02331c0,1.25414 0.93187,2.941 2.33453,3.75981zm-3.2664,3.71043c-0.46587,-1.25414 -2.74992,-2.89149 -4.6186,-2.89149c-1.34711,0 -2.27898,1.63735 -1.34711,2.89149c0.41524,1.25166 2.28392,2.0706 4.14765,2.0706c1.81806,0 2.28392,-0.81894 1.81806,-2.0706zm-4.14766,18.59827c1.39774,0 3.26641,-0.43272 3.26641,-0.81855c0,-0.86831 -1.86867,-1.68685 -3.26641,-2.50579c-1.81805,-0.81881 -3.21592,-0.38583 -3.21592,0.81894c0,1.25387 1.39787,2.5054 3.21592,2.5054zm3.68179,-39.26949c1.8636,-0.8192 2.80041,-2.07294 2.32961,-3.27771c-1.39788,-2.93838 -9.22732,-2.93838 -9.22732,0c0,3.27771 2.74498,4.52937 6.89771,3.27771zm-25.36195,-30.9837c-2.33467,1.25414 -3.73241,3.71043 -3.26668,4.96431c2.33467,3.27523 5.08474,2.45629 7.4142,-2.89163c2.28406,-4.96431 1.35219,-5.78285 -4.14752,-2.07268zm-8.81701,63.65153c12.03266,11.13064 12.49867,11.56375 12.49867,7.85358c0,-2.07047 -0.93187,-3.75732 -2.33468,-3.75732c-1.34698,0 -3.68165,-2.07308 -5.07939,-4.52898c-1.34725,-2.45891 -4.14765,-4.9647 -6.43171,-4.9647c-4.19828,0 -4.19828,0.43533 1.34711,5.39742zm-9.69318,-19.46685c2.7956,0 4.14779,-0.81854 2.32974,-1.2045c-1.39773,-0.81881 -3.68179,-0.81881 -5.07952,0c-1.40295,0.38596 0,1.2045 2.74978,1.2045zm-13.37977,-56.18155c1.39773,1.25192 5.54538,2.88941 9.22704,3.71057c6.48247,1.25152 6.94833,1.25152 3.26654,-2.07269c-4.19827,-4.09639 -15.70937,-5.34792 -12.49358,-1.63788zm-28.16264,-68.56594c-1.39773,1.20437 -1.86359,3.71017 -1.39773,5.34752c0.93187,3.32461 3.68179,0.43311 3.68179,-4.52898c0,-2.50579 -0.466,-2.89162 -2.28406,-0.81854zm13.84578,89.23755c3.68179,2.0702 5.0846,2.0702 6.95341,-0.82116c3.68165,-4.52924 1.34698,-6.59944 -5.5506,-3.71004c-5.55047,2.02554 -5.55047,2.02554 -1.40281,4.5312zm-9.22704,-20.67161c6.9482,-4.52859 6.9482,-4.52859 1.39773,-4.52859c-3.73241,0 -6.48233,1.6371 -7.88006,4.52859c-0.88125,2.88941 -1.81806,4.52937 -1.35219,4.52937c0,0 3.68179,-2.45877 7.83452,-4.52937zm-10.16413,66.97613c3.21071,4.52938 8.76132,4.52938 6.9482,-0.43298c-0.46586,-1.6397 -0.9368,-3.71017 -0.9368,-4.1455c0,-0.38583 -1.86374,-0.38583 -4.14766,0.43533c-3.73241,0.81881 -3.73241,2.07047 -1.86374,4.14315zm-14.31671,-16.96104c3.68165,4.52924 5.55046,4.96196 9.69812,1.63775c2.74992,-2.07047 2.74992,-2.07047 0,-2.4563c-1.39773,0 -5.07953,-0.43533 -8.29531,-1.25414c-4.6186,-1.63748 -4.6186,-1.63748 -1.40281,2.07269zm-0.46587,-45.053c2.33454,0 5.08446,-6.60166 3.6818,-8.67213c-1.81312,-2.07269 -5.54553,1.25153 -5.54553,4.96196c0,2.07282 0.93186,3.71017 1.86373,3.71017zm-22.60709,28.09182c-2.80054,1.68686 -2.33454,2.07308 1.34726,2.07308c2.33453,0 5.07938,-0.82142 6.01632,-2.07308c1.3976,-3.27706 -3.21592,-3.27706 -7.36358,0zm0.46601,36.37852c0.41524,0.43533 1.81297,-0.43298 3.21578,-2.4563c1.39759,-1.68685 5.54553,-3.75954 8.76118,-4.57848c4.14765,-1.25192 6.01647,-3.2751 6.01647,-6.2161c0,-6.98501 -6.48234,-4.91493 -13.38006,4.14564c-2.8004,4.57626 -5.07938,8.28669 -4.61337,9.10524zm-5.08446,-19.03151c4.14751,-4.52872 4.14751,-5.35014 0.88096,-6.6018c-3.68165,-1.63775 -6.42649,2.07308 -6.42649,8.67226c-0.47094,4.96431 -0.47094,4.96431 5.54553,-2.07046zm-7.41421,-48.76304c0.46587,3.32421 1.39774,2.89149 4.14752,-3.27745c3.26669,-6.59958 3.26669,-7.46789 0.466,-7.46789c-1.81297,0 -3.68179,1.25192 -4.14765,3.32473c-0.93187,1.63736 -0.93187,5.39729 -0.46587,7.42061zm-2.28406,-33.87285c0,1.68464 0.88111,5.7809 1.81806,8.67226c1.39773,5.78312 1.39773,5.78312 2.80054,0.81881c1.81298,-4.9617 0,-12.3823 -2.80054,-12.3823c-1.35219,0 -1.81806,1.25126 -1.81806,2.89123zm-32.35583,13.63422c-2.28392,2.89162 -2.28392,5.78325 -0.47094,14.45538c0.93695,6.21597 3.27163,12.43207 4.6186,13.63683c2.33468,2.07269 2.80054,0 3.2664,-12.81567c0,-15.66015 -2.33453,-20.62407 -7.41406,-15.27654zm4.14766,43.80134c0.466,0.81894 1.39773,-0.81881 0.93187,-3.27732c0,-2.5058 -0.46587,-2.89163 -1.39774,-1.25166c-0.41538,1.63749 -0.41538,3.71017 0.46587,4.52898zm16.64632,-38.83703c-0.46587,0.81894 -0.46587,6.60206 0.93187,12.81567c1.4028,10.74743 1.81805,11.18015 2.28405,3.32657c0.46587,-12.8179 -0.466,-19.03373 -3.21592,-16.14224zm-15.71445,116.55811c2.80054,-4.96431 7.4142,-13.251 10.62999,-18.21492c3.68165,-5.34831 6.01633,-12.3827 6.94819,-19.41747c1.35219,-11.13104 1.35219,-11.13104 1.35219,-11.13104c-5.55046,6.16895 -5.55046,6.16895 -5.55046,6.16895c-2.74992,3.3246 -4.61366,7.03477 -4.61366,8.28669c0,3.27719 -8.76625,23.94841 -11.51618,27.65884c-1.39773,2.07008 -3.73241,6.64895 -4.14765,9.92601c-2.33468,9.49133 1.81805,7.85359 6.89758,-3.27706zm-32.77616,42.5472c1.40281,8.23915 1.40281,8.23915 6.01647,-9.49342c2.74993,-9.5407 6.89758,-24.81437 9.69812,-34.30792c3.68166,-11.99686 5.08446,-21.92287 5.08446,-35.94514c0,-18.2131 -0.47094,-18.59893 -4.15259,-16.52585c-8.34607,5.34779 -12.96466,20.23589 -14.8284,49.14626c-0.88111,14.89097 -1.81806,29.77907 -2.74978,33.05652c-0.46601,3.32434 0,9.54044 0.93172,14.06955zm0.93695,-105.76601c1.81298,4.09626 3.68179,7.4206 3.68179,7.4206c0.46586,0 2.74471,-2.50579 4.61352,-5.78285c2.33454,-2.88928 6.01633,-6.21362 7.4142,-7.41839c5.49971,-3.75954 6.89744,-15.3233 2.28392,-23.17688c-3.68179,-7.03477 -13.84578,-14.89071 -15.71459,-12.38491c-0.93173,0.8188 -2.27884,8.67474 -3.21579,17.77998c-1.86359,13.63644 -1.86359,17.78181 0.93695,23.56245zm-2.80054,-94.63458c0.93187,0.82116 1.86359,0.38583 1.86359,-0.8657c0,-1.63997 -0.93172,-3.27772 -1.86359,-4.09639c-1.40281,-0.86818 -2.28406,-0.43298 -2.28406,1.20476c0,1.25166 9.88125,9.89163 2.28406,3.75733zm-149.61453,111.11327c6.43157,0.4352 6.43157,0.4352 6.43157,0.4352c6.48234,0 12.96467,-5.35013 12.96467,-9.926c0,-2.89163 -0.46586,-2.89163 -19.39624,9.4908zm2.74992,-11.56388c0,1.25453 0.93187,2.50579 2.33468,2.50579c2.27898,0 8.76118,-7.4206 7.36344,-8.67213c-1.40281,-1.68685 -9.69812,3.71004 -9.69812,6.16634zm5.08446,-28.47726c6.94834,8.24137 10.16413,9.06018 13.84578,3.71004c3.73241,-4.9617 0.466,-8.2863 -10.63493,-9.49107c-9.22718,-1.25414 -9.22718,-1.25414 -3.21085,5.78103zm-5.08446,-23.17479c0,0.8657 3.26641,2.88901 6.9482,4.57587c17.0617,7.85371 20.32811,7.85371 19.86211,0.38622c0,-4.52937 -6.9482,-14.45564 -9.69813,-14.45564c-3.2664,0 -17.11218,7.85358 -17.11218,9.49355zm24.94671,58.68722c5.07952,0 5.54539,-1.25192 1.39773,-3.27524c-1.86867,-0.4352 -3.68179,0 -4.14765,1.20477c-0.93695,1.25127 0.46586,2.07047 2.74992,2.07047zm3.68179,-97.09127c-3.21593,-2.07295 -7.36866,-2.8915 -9.23226,-2.07295c-3.21578,1.63997 -2.74992,2.07295 1.8636,3.32421c2.28406,0.82142 6.95342,1.6401 9.23226,2.02593c2.74992,0 2.74992,-0.82116 -1.8636,-3.27719zm-0.41524,14.8881c2.7447,0 3.21578,-0.43298 1.34711,-1.68464c-1.34711,-0.38557 -3.21593,-0.38557 -4.1478,0.43311c-0.46586,0.81855 0.93187,1.63775 2.80069,1.25153zm2.7447,9.49368c-6.48219,0 -6.48219,0.38543 -2.7447,3.71004c4.61351,3.71017 5.96063,4.14289 7.82944,1.63748c3.21565,-3.27523 0.93173,-5.34752 -5.08474,-5.34752zm9.2324,-46.69075c-1.86882,-2.07268 -2.33468,1.63775 -1.39788,6.16673c0.46587,2.89162 2.32961,5.39703 3.26655,5.39703c1.81298,0 0.46587,-9.10746 -1.86867,-11.56376zm14.7775,54.54368c-0.93173,0.38622 1.40281,2.89162 4.15273,4.96457c2.80055,2.07047 5.07939,2.88914 5.07939,1.63749c0,-2.89124 -7.82931,-8.28853 -9.23212,-6.60206zm-11.56186,2.89162c-4.14765,2.89189 -1.81297,10.3121 4.19842,11.56402c3.21579,0.81868 8.30039,4.14328 11.51617,7.42034c2.80055,3.32461 5.07939,4.57875 5.07939,3.32461c0,-4.14315 -18.4593,-23.99582 -20.79398,-22.30897zm18.93038,34.30831c-2.74978,-6.65142 -5.96571,-9.92666 -11.98218,-11.99934c-4.61352,-1.63749 -9.23211,-2.50541 -10.62985,-2.07021c-1.40281,0.43272 4.14766,5.78064 12.0328,11.99661c14.77751,10.74521 14.77751,10.74521 10.57923,2.07294zm24.52639,-63.65179c-0.93187,0 -1.86882,1.63775 -1.86882,3.27524c0,2.07268 0.93695,3.3246 1.86882,3.3246c1.34711,0 2.28405,-1.25192 2.28405,-3.3246c0,-1.63749 -0.93694,-3.27524 -2.28405,-3.27524zm-4.19828,33.87285c0,2.89124 7.88007,0.81881 11.09585,-2.89162c4.61367,-6.21584 4.14766,-7.85358 -1.86867,-7.85358c-4.14765,0 -9.22718,5.78338 -9.22718,10.7452zm13.43053,-89.23794c-1.40281,5.34792 -2.33468,9.8769 -1.86867,10.31223c1.40267,1.63774 5.0846,-10.74495 5.0846,-15.70926c0,-2.07047 -1.40295,0.43533 -3.21593,5.39703zm24.0099,83.4547c-2.33467,0 -4.14779,0.82142 -4.14779,2.45851c0,1.25192 1.34711,2.07308 2.74484,2.07308c1.86868,0 3.6818,-0.82116 4.15274,-2.07308c0.93186,-1.63709 -0.47094,-2.45851 -2.74979,-2.45851zm-5.5506,77.67379c2.74992,7.47011 6.89758,14.45538 9.23225,16.14224c2.33468,1.25192 6.9482,7.03504 9.69813,12.8179c2.74992,5.78089 5.55046,10.31 6.01646,10.31c2.27885,0 -2.33467,-38.016 -5.55046,-49.58197c-2.80068,-9.92379 -3.68193,-19.03151 -3.21593,-33.48689c0.41525,-10.74495 0,-20.2385 -0.93173,-21.05718c-0.466,-0.81881 -3.68179,-0.81881 -6.48233,0c-5.0846,1.63749 -5.55046,2.89162 -5.55046,11.99909c0,6.9854 -0.93201,10.7452 -3.21593,12.3823c-6.48219,3.71056 -6.01633,24.76761 0,40.47451zm-13.37977,-55.36248c-0.93187,-6.21597 -1.8636,-7.03477 -6.9482,-7.03477c-6.01647,0 -6.01647,0.43297 -5.55047,9.10524c0,5.35014 0.93681,11.56597 1.40267,14.45525c0.46601,2.89162 2.28406,5.78285 4.1478,6.21596c3.68165,2.07295 7.82931,-12.3823 6.9482,-22.74168zm-6.9482,41.72604c-4.1478,-4.96209 -6.9482,-10.31001 -7.36358,-11.56375c0,-1.63749 -2.33454,-5.78064 -5.07953,-9.49107c-2.80054,-3.71017 -6.01633,-8.28866 -7.41914,-9.9264c-4.61352,-5.78286 -3.68179,-0.81855 1.40281,11.99686c3.21579,8.67435 8.76132,16.52807 15.24351,23.12973c11.98204,11.17793 13.37991,9.10564 3.21593,-4.14537zm-7.36358,20.28539c5.0289,0 4.61366,-0.43272 -2.33454,-7.03438c-4.61366,-4.14355 -7.82945,-8.67253 -7.82945,-10.74534c0,-1.63736 -6.01647,-7.46776 -12.96452,-12.81568c-6.89772,-5.39689 -13.38006,-10.74481 -14.31179,-12.38452c-0.93694,-2.07046 -1.40281,-2.07046 -1.40281,0.38583c0,2.5058 -2.27898,2.89123 -9.69812,1.63749c-5.07952,-0.81894 -9.22718,-0.81894 -9.22718,-0.38361c0,0.81881 1.8636,5.7809 3.73241,10.74481c3.21593,8.23955 4.61352,9.92667 14.77765,13.20164c6.43171,2.07268 16.59556,7.03464 23.07789,10.74481c6.01647,3.75994 13.37991,6.64895 16.18046,6.64895zm-72.08512,14.02227c1.86867,0 4.61859,-0.81855 6.48219,-2.07229c3.21593,-2.88941 0.47108,-2.88941 -5.54539,0c-2.74992,1.25374 -3.21579,1.63957 -0.9368,2.07229zm-5.07953,-10.3121c4.61366,-1.68437 19.39624,-3.32434 32.82678,-3.32434c25.35701,-0.38583 30.44147,-1.63709 20.27735,-4.14315c-3.21565,-0.81855 -10.57923,-2.89163 -16.59556,-4.96209c-10.62999,-3.71017 -32.36091,-2.45852 -34.63989,1.68503c-0.47094,0.82076 -2.80055,1.25374 -5.08446,0.82076c-4.61366,-1.25387 -9.23226,2.07073 -10.62999,8.67253c-1.86868,5.34752 1.39773,5.78285 13.84577,1.25126zm-36.92381,9.49355c0.93187,3.32461 5.55047,3.71018 9.23226,0.81855c2.27884,-1.63735 2.27884,-2.4559 0,-4.9617c-1.86867,-2.4589 -3.21579,-2.4589 -6.01633,-0.38583c-1.86867,1.20477 -3.21593,3.27524 -3.21593,4.52898zm-14.77764,28.91076c1.81312,0 2.74499,1.25192 1.81312,3.71044c-0.41539,1.68685 -1.81312,3.32434 -2.74992,3.32434c-1.39774,0 -2.27899,-1.63749 -2.27899,-3.32434c0,-2.02332 1.34712,-3.71044 3.21579,-3.71044z" fill-opacity="null" stroke-opacity="null" stroke-width="5.5" fill="#fff"/>
  <text font-weight="bold" stroke="#000" transform="matrix(1.9448432712312067,0,0,2.0994922903225017,-455.6845437236112,-321.46029508895595) " xml:space="preserve" text-anchor="start" font-family="Helvetica, Arial, sans-serif" font-size="24" id="svg_6" y="368.035839" x="314.740645" fill-opacity="null" stroke-opacity="null" stroke-width="0" fill="#000000">法律业务知识库</text>
 </g>
</svg>